<svg width="304" height="51" viewBox="0 0 304 51" fill="none" xmlns="http://www.w3.org/2000/svg">
<g clip-path="url(#clip0_184_6578)">
<path d="M14.7383 6.57492C14.9159 7.64112 15.6262 8.52962 16.514 9.06272C16.6916 9.24042 16.6916 9.59582 16.3364 9.59582L4.97196 12.439C4.79438 12.439 4.61682 12.6167 4.79438 12.7944L7.63551 24.7004C7.63551 24.8781 7.28037 25.0558 7.1028 24.8781C6.03738 24.1673 4.79438 23.9896 3.72896 24.1673C1.06541 24.8781 -0.532718 28.0767 0.355133 31.453C1.24298 34.8293 4.0841 37.1394 6.74766 36.4286C7.99065 36.0732 8.8785 35.3624 9.58878 34.2962C9.76635 34.1185 10.1215 34.1185 10.1215 34.4739L12.9626 46.3798C12.9626 46.5575 13.1402 46.5575 13.3177 46.5575L24.5047 43.892C24.6822 43.892 24.8598 44.0697 24.8598 44.2474C24.5047 45.1359 24.3271 46.0244 24.5047 46.9129C25.2149 49.5784 28.4112 51.1777 31.785 50.2892C35.1589 49.4007 37.4673 46.5575 36.757 43.892C36.5794 43.0035 36.0467 42.115 35.3364 41.5819C35.1589 41.4042 35.1589 41.0488 35.514 41.0488L44.2149 38.9164C45.8131 38.561 46.8785 36.9617 46.3458 35.3624L44.0374 25.5889C44.0374 25.2335 43.6822 25.2335 43.5047 25.5889C42.972 27.0105 41.729 27.899 40.486 28.2544C37.8224 28.9652 34.9813 26.6551 34.0935 23.2787C33.2056 19.9024 34.8037 16.5261 37.4673 15.993C38.8878 15.6376 40.3084 16.1707 41.3738 17.0592C41.5514 17.2369 41.9065 17.0592 41.9065 16.7038L39.0654 4.44251C39.0654 4.26481 38.8878 4.26481 38.7103 4.26481L26.9906 7.10802C26.8131 7.10802 26.4579 6.93032 26.6355 6.75262C27.1682 5.86412 27.3458 4.79791 27.1682 3.73171C26.4579 1.06621 23.2617 -0.533096 19.8878 0.355405C16.3364 1.06621 14.2056 3.90941 14.7383 6.57492Z" fill="#5FBDAC"/>
<path d="M52.9159 3.7317C52.7383 4.79791 52.9159 5.86411 53.271 6.75261C53.4486 6.93031 53.271 7.28571 52.9159 7.10801L41.5514 4.26481C41.3738 4.26481 41.1963 4.26481 41.1963 4.44251L38.3551 16.1707C38.3551 16.3484 38 16.5261 37.8224 16.1707C37.1121 15.1045 36.2243 14.216 35.1589 14.0383C32.4953 13.3275 29.6542 15.6376 28.7664 19.0139C27.8785 22.3902 29.4766 25.7665 32.1402 26.2996C33.3832 26.6551 34.4486 26.2996 35.514 25.5888C35.6916 25.4111 36.0467 25.5888 35.8692 25.9442L33.028 37.6725C33.028 37.8502 33.028 38.0279 33.2056 38.0279L44.3925 40.8711C44.5701 40.8711 44.7477 41.2265 44.5701 41.4042C43.8598 41.9373 43.3271 42.8258 42.972 43.7143C42.2617 46.3798 44.5701 49.223 47.9439 50.1115C51.3178 51 54.6916 49.4007 55.2243 46.7352C55.4019 45.8467 55.4019 44.9582 55.0467 44.0697C54.8692 43.892 55.2243 43.5366 55.4019 43.7143L64.1028 45.8467C65.7009 46.2021 67.2991 45.3136 67.6542 43.7143L70.1402 34.1185C70.1402 33.7631 69.9626 33.5854 69.6075 33.7631C68.3645 34.6516 66.9439 35.1847 65.7009 34.8293C63.0374 34.1185 61.4392 30.9199 62.3271 27.5436C63.215 24.1672 66.0561 21.8571 68.7196 22.5679C70.1402 22.9233 71.2056 23.9895 71.7383 25.4111C71.9159 25.5888 72.271 25.5888 72.271 25.4111L75.2897 13.1498C75.2897 12.9721 75.2897 12.7944 75.1121 12.7944L63.7477 9.95122C63.5701 9.95122 63.3925 9.59582 63.5701 9.41812C64.4579 8.88501 65.1682 7.99651 65.3458 6.93031C66.0561 4.26481 63.7477 1.4216 60.3738 0.533098C57 -0.355404 53.6262 1.0662 52.9159 3.7317Z" fill="#5881C1"/>
<path d="M100.682 31.2753L106.542 20.0801C106.542 19.9024 106.542 19.7247 106.364 19.7247L95.8879 14.216C95.7103 14.0383 95.7103 13.8606 95.8879 13.6829C96.9533 13.3275 97.6636 12.6167 98.1963 11.7282C99.4393 9.24041 98.0187 5.86411 94.8224 4.2648C91.6262 2.6655 88.0748 3.3763 86.8318 5.86411C86.2991 6.75261 86.2991 7.81881 86.4766 8.88501C86.4766 9.06271 86.2991 9.24041 86.1215 9.24041L75.6449 3.7317C75.4673 3.7317 75.2897 3.7317 75.2897 3.9094L69.785 14.7491C69.6075 14.9268 69.2523 14.9268 69.2523 14.7491C68.8972 13.5052 68.1869 12.6167 67.1215 11.9059C64.6355 10.662 61.2617 12.0836 59.6636 15.2822C58.0654 18.4808 58.7757 22.0348 61.2617 23.2787C62.3271 23.8118 63.5701 23.8118 64.8131 23.4564C64.9907 23.4564 65.3458 23.6341 65.1682 23.8118L59.6636 34.6516C59.6636 34.8293 59.6636 35.007 59.8411 35.007L70.1402 40.338C70.3178 40.5157 70.3178 40.6934 70.1402 40.8711C69.2523 41.2265 68.5421 41.9373 68.1869 42.8258C66.9439 45.3136 68.3645 48.6899 71.5608 50.2892C74.757 51.8885 78.3084 51.1777 79.5514 48.6899C79.9065 47.8014 80.0841 46.9129 79.9065 46.0244C79.9065 45.8467 80.0841 45.669 80.2617 45.669L88.0748 49.7561C89.4953 50.4669 91.271 49.9338 92.1589 48.5122L96.7757 39.6272C96.9533 39.4495 96.9533 38.9164 97.1308 38.7387C97.6636 37.3171 97.3084 38.561 97.8411 37.1394C99.7944 33.0523 97.8411 36.784 99.6168 33.7631" fill="#FDCB67"/>
<path d="M11.0094 18.6585C10.8318 18.3031 10.6542 17.77 10.4766 17.2369C10.2991 16.7038 10.2991 16.1707 10.2991 15.4599C10.2991 14.3937 10.4766 13.5052 11.0094 12.9721C11.3645 12.439 12.0748 12.2613 12.9626 12.2613H32.1402C32.3178 12.6167 32.4953 12.9721 32.6729 13.5052C32.8505 14.0383 32.8505 14.5714 32.8505 15.2822C32.8505 16.3484 32.6729 17.2369 32.1402 17.77C31.6075 18.3031 30.8972 18.4808 30.1869 18.4808H25.215V38.9164C24.8598 38.9164 24.3271 39.0941 23.6168 39.0941C22.9065 39.0941 22.1963 39.2718 21.486 39.2718C20.7757 39.2718 20.243 39.2718 19.7103 39.0941C19.1776 38.9164 18.8224 38.7387 18.4673 38.561C18.1122 38.3833 17.9346 37.8502 17.757 37.4948C17.5794 36.9617 17.5794 36.4286 17.5794 35.7178V18.4808H11.0094V18.6585Z" fill="white"/>
<path d="M42.2617 16.1707C42.2617 14.9268 42.6168 13.8606 43.3271 13.1498C44.0374 12.439 45.1028 12.0836 46.3458 12.0836H60.9065C61.0841 12.439 61.2617 12.7944 61.4392 13.3275C61.6168 13.8606 61.6168 14.3937 61.6168 14.9268C61.6168 15.993 61.4392 16.8815 60.9065 17.2369C60.3738 17.77 59.8411 17.9477 58.9533 17.9477H49.7196V22.0348H59.6635C59.8411 22.3902 60.0187 22.7456 60.1963 23.2787C60.3738 23.8118 60.3738 24.3449 60.3738 24.878C60.3738 25.9443 60.1963 26.8328 59.6635 27.1882C59.1308 27.7213 58.5981 27.899 57.7103 27.899H49.7196V32.5192H61.0841C61.2617 32.8746 61.4392 33.23 61.6168 33.7631C61.7944 34.2962 61.7944 34.8293 61.7944 35.3624C61.7944 36.4286 61.6168 37.3171 61.0841 37.8502C60.5514 38.3833 60.0187 38.561 59.1308 38.561H46.1682C44.9252 38.561 43.8598 38.2056 43.1495 37.4948C42.4392 36.784 42.0841 35.7178 42.0841 34.4739V16.1707H42.2617Z" fill="white"/>
<path d="M78.1308 13.1498C78.6636 12.7944 79.3738 12.6167 80.4393 12.2613C81.5047 12.0836 82.3925 11.9059 83.4579 11.9059C84.8785 11.9059 86.2991 12.0836 87.3645 12.6167C88.4299 12.9721 89.1402 13.6829 89.4953 14.5714C90.028 16.1707 90.5608 17.9477 91.271 19.9024C91.8037 21.8571 92.514 23.9896 93.0467 26.122C93.5794 28.2544 94.2897 30.3868 94.8224 32.5192C95.3551 34.6516 95.8878 36.4286 96.4206 38.0279C96.0654 38.3833 95.5327 38.7387 94.8224 39.0941C94.1122 39.2718 93.2243 39.4495 92.3365 39.4495C91.6262 39.4495 91.0935 39.4495 90.5607 39.2718C90.028 39.0941 89.6729 38.9164 89.3178 38.7387C88.9626 38.561 88.7851 38.2056 88.6075 37.8502C88.4299 37.4948 88.2523 36.9617 88.0748 36.6063L87.3645 33.5854H79.3738C79.1963 34.4739 78.8411 35.3624 78.6636 36.2509C78.486 37.1394 78.1308 38.0279 77.9533 38.9164C77.5981 39.0941 77.0654 39.2718 76.7103 39.2718C76.1776 39.4495 75.6449 39.4495 75.1121 39.4495C73.6916 39.4495 72.4486 39.2718 71.7383 38.7387C71.028 38.2056 70.6729 37.4948 70.6729 36.6063C70.6729 36.2509 70.6729 35.7178 70.8505 35.3624C71.028 35.007 71.028 34.4739 71.2056 33.9408C71.3832 33.23 71.7383 32.1638 72.0935 30.9199C72.4486 29.676 72.8037 28.4321 73.3364 27.0105C73.6916 25.5889 74.2243 24.1673 74.757 22.7457C75.2897 21.324 75.6449 19.9024 76.1776 18.6585C76.5327 17.4146 77.0654 16.1707 77.4206 15.2822C77.5981 14.3937 77.7757 13.6829 78.1308 13.1498ZM83.4579 18.8362C83.1028 20.0801 82.5701 21.5017 82.0374 22.9234C81.5047 24.5227 80.972 25.9443 80.6168 27.5436H86.1215C85.7664 25.9443 85.2336 24.345 84.8785 22.9234C84.5234 21.324 83.9907 20.0801 83.6355 18.8362H83.4579Z" fill="white"/>
<path d="M116.308 17.77C114 17.77 112.224 18.4808 111.159 19.9024C109.916 21.324 109.383 23.2787 109.383 25.7665C109.383 28.2544 110.093 30.3868 111.336 31.6307C112.757 33.0523 114.533 33.7631 116.664 33.7631C117.907 33.7631 118.972 33.5854 119.682 33.23C120.57 32.8746 121.28 32.5192 122.168 32.1638C122.701 32.5192 123.056 33.0523 123.411 33.5854C123.766 34.1185 123.766 34.8293 123.766 35.5401C123.766 36.784 123.056 37.8502 121.813 38.561C120.393 39.4495 118.439 39.8049 115.776 39.8049C113.645 39.9826 111.869 39.6272 110.093 39.0941C108.318 38.561 106.897 37.6725 105.477 36.4286C104.234 35.1847 103.168 33.7631 102.458 31.9861C101.748 30.2091 101.393 28.0767 101.393 25.5888C101.393 23.2787 101.748 21.324 102.458 19.547C103.168 17.77 104.234 16.3484 105.477 15.1045C106.542 14.0383 108.14 13.1498 109.738 12.439C111.336 11.9059 113.29 11.5505 115.065 11.5505C117.729 11.5505 119.86 11.9059 121.28 12.7944C122.701 13.6829 123.589 14.7491 123.589 16.1707C123.589 16.8815 123.411 17.5923 123.056 18.1254C122.701 18.6585 122.168 19.1916 121.813 19.3693C121.103 18.8362 120.215 18.4808 119.327 18.1254C118.439 17.9477 117.374 17.77 116.308 17.77Z" fill="#E8386C"/>
<path d="M181.654 32.5192C181.299 32.8746 180.766 33.0523 180.234 33.23C179.701 33.4077 178.991 33.5854 178.103 33.5854C177.037 33.5854 176.15 33.4077 175.439 33.23C174.729 33.0523 174.374 32.5192 174.019 31.8084C173.131 29.1429 172.598 27.1881 172.065 25.5888C171.533 23.9895 171.178 22.5679 170.822 21.324H170.645C170.645 23.101 170.467 24.7003 170.467 26.1219C170.467 27.5436 170.467 28.9652 170.467 30.3868C170.467 31.8084 170.467 33.0523 170.467 34.4739C170.467 35.8955 170.29 37.3171 170.29 39.0941C169.935 39.2718 169.402 39.4495 168.869 39.4495C168.336 39.6272 167.626 39.6272 167.093 39.6272C165.85 39.6272 164.785 39.4495 164.075 39.0941C163.364 38.7387 163.009 37.8502 163.009 36.784L164.252 14.216C164.43 13.8606 164.963 13.5052 165.85 12.9721C166.561 12.6167 167.804 12.2613 169.224 12.2613C170.822 12.2613 172.065 12.439 172.953 12.9721C173.308 13.5052 174.019 14.216 174.374 15.2822C174.551 15.993 174.907 16.8815 175.262 17.77C175.617 18.6585 175.794 19.547 176.15 20.6132C176.505 21.5017 176.682 22.5679 177.037 23.4564C177.393 24.3449 177.57 25.2334 177.748 26.1219H177.925C178.636 23.6341 179.346 21.324 180.056 19.0139C180.766 16.7038 181.477 14.7491 182.009 13.1498C182.364 12.9721 183.075 12.7944 183.785 12.6167C184.495 12.439 185.206 12.439 186.093 12.439C187.514 12.439 188.757 12.6167 189.645 13.1498C190.533 13.5052 191.065 14.216 191.243 14.9268C191.421 15.4599 191.421 16.3484 191.598 17.5923C191.776 18.8362 191.953 20.2578 191.953 21.6794C192.131 23.2787 192.308 24.878 192.308 26.4773C192.486 28.2544 192.664 29.8537 192.664 31.453C192.841 33.0523 192.841 34.4739 193.019 35.7178C193.019 36.9617 193.196 38.0279 193.196 38.7387C192.664 39.0941 192.131 39.2718 191.598 39.4495C191.065 39.6272 190.355 39.6272 189.467 39.6272C188.402 39.6272 187.336 39.4495 186.626 39.0941C185.916 38.7387 185.383 38.0279 185.383 36.784C185.206 33.5854 185.028 30.7422 185.028 28.0767C185.028 25.5888 184.85 23.2787 184.85 21.6794H184.673C184.318 22.7456 183.963 24.3449 183.43 25.9442C183.252 27.7213 182.542 29.8537 181.654 32.5192Z" fill="#E8386C"/>
<path d="M206.159 38.9164C205.804 38.9164 205.271 39.0941 204.561 39.0941C203.85 39.0941 203.14 39.2718 202.43 39.2718C201.72 39.2718 201.187 39.2718 200.654 39.0941C200.122 38.9164 199.766 38.7387 199.411 38.561C199.056 38.3833 198.879 37.8502 198.701 37.4948C198.523 36.9617 198.523 36.4286 198.523 35.7178V14.9268C198.523 14.3937 198.701 13.8606 199.056 13.5052C199.411 13.1498 199.944 12.9721 200.477 12.6167C201.542 12.2613 202.607 12.0836 203.85 11.9059C205.093 11.7282 206.336 11.7282 207.757 11.7282C211.841 11.7282 214.86 12.6167 217.168 14.3937C219.299 16.1707 220.364 18.4808 220.364 21.5017C220.364 22.9233 220.187 24.1672 219.654 25.4111C219.121 26.655 218.589 27.5435 217.701 28.432C216.813 29.3205 215.748 29.8536 214.327 30.3867C212.907 30.9198 211.308 31.0975 209.533 31.0975H206.336V38.9164H206.159ZM208.467 24.878C209.71 24.878 210.598 24.5226 211.308 23.9895C212.019 23.4564 212.374 22.5679 212.374 21.324C212.374 20.2578 212.019 19.3693 211.308 18.6585C210.598 18.1254 209.533 17.77 208.29 17.77C207.757 17.77 207.402 17.77 207.047 17.77C206.692 17.77 206.336 17.77 206.159 17.9477V24.878H208.467Z" fill="#E8386C"/>
<path d="M228.533 13.1498C229.065 12.7944 229.776 12.6167 230.841 12.2613C231.907 11.9059 232.794 11.9059 233.86 11.9059C235.28 11.9059 236.701 12.0836 237.766 12.6167C238.832 12.9721 239.542 13.6829 239.897 14.5714C240.43 16.1707 240.963 17.9477 241.673 19.9024C242.206 21.8571 242.916 23.9895 243.449 26.1219C243.981 28.2543 244.692 30.3867 245.224 32.5192C245.757 34.6516 246.29 36.4286 246.822 38.0279C246.467 38.3833 245.935 38.7387 245.224 39.0941C244.514 39.2718 243.626 39.4495 242.738 39.4495C242.028 39.4495 241.495 39.4495 240.963 39.2718C240.43 39.0941 240.075 38.9164 239.72 38.7387C239.364 38.561 239.187 38.2056 239.009 37.8502C238.832 37.4948 238.654 36.9617 238.477 36.6063L237.766 33.5854H229.776C229.598 34.4739 229.243 35.3624 229.065 36.2509C228.888 37.1394 228.533 38.0279 228.355 38.9164C228 39.0941 227.467 39.2718 227.112 39.2718C226.579 39.4495 226.047 39.4495 225.514 39.4495C224.093 39.4495 222.85 39.2718 222.14 38.7387C221.43 38.2056 221.075 37.4948 221.075 36.6063C221.075 36.2509 221.075 35.7178 221.252 35.3624C221.43 35.007 221.43 34.4739 221.607 33.9408C221.785 33.23 222.14 32.1638 222.495 30.9199C222.85 29.6759 223.206 28.432 223.738 27.0104C224.093 25.5888 224.626 24.1672 225.159 22.7456C225.692 21.324 226.047 19.9024 226.579 18.6585C226.935 17.4146 227.467 16.1707 227.822 15.2822C228 14.3937 228.355 13.6829 228.533 13.1498ZM233.86 18.8362C233.505 20.0801 232.972 21.5017 232.439 22.9233C231.907 24.5226 231.374 25.9442 231.019 27.5435H236.523C236.168 25.9442 235.636 24.3449 235.28 22.9233C234.925 21.324 234.393 20.0801 234.037 18.8362H233.86Z" fill="#E8386C"/>
<path d="M274.523 38.2056C274.168 38.561 273.458 38.9164 272.748 39.0941C272.037 39.2718 270.972 39.4495 269.907 39.4495C268.841 39.4495 267.776 39.2718 266.888 38.9164C266 38.561 265.112 37.8502 264.579 36.6063L260.14 27.7213C259.785 26.8328 259.252 25.9442 258.897 25.0557C258.542 24.1672 258.187 23.2787 257.832 22.2125H257.654C257.832 23.8118 257.832 25.4111 257.832 27.0105C257.832 28.6098 257.832 30.2091 257.832 31.8084V38.7387C257.477 38.7387 256.944 38.9164 256.411 38.9164C255.701 38.9164 255.168 39.0941 254.458 39.0941C253.748 39.0941 253.215 39.0941 252.682 38.9164C252.15 38.9164 251.794 38.7387 251.439 38.3833C251.084 38.2056 250.907 37.6725 250.729 37.3171C250.551 36.784 250.551 36.2509 250.551 35.5401V13.6829C250.907 13.1498 251.617 12.6167 252.505 12.439C253.393 12.0836 254.28 12.0836 255.168 12.0836C256.234 12.0836 257.299 12.2613 258.364 12.6167C259.43 12.9721 260.14 13.6829 260.673 14.9268L265.112 23.8118C265.467 24.7003 266 25.5888 266.355 26.4773C266.71 27.3659 267.065 28.2544 267.421 29.3206H267.598C267.421 27.7213 267.421 26.1219 267.421 24.5226C267.421 22.9233 267.421 21.324 267.421 19.7247V12.439C267.776 12.439 268.308 12.2613 268.841 12.2613C269.551 12.2613 270.084 12.0836 270.794 12.0836C272.037 12.0836 273.103 12.2613 273.813 12.7944C274.523 13.3275 274.879 14.216 274.879 15.6376V38.2056H274.523ZM262.626 3.0209C263.159 3.1986 263.514 3.1986 263.869 3.3763C264.224 3.3763 264.579 3.554 264.757 3.554C265.467 3.554 265.822 3.3763 266.178 3.0209C266.533 2.6655 266.71 2.3101 266.888 2.1324C267.953 2.1324 268.841 2.4878 269.551 3.1986C270.262 3.9094 270.617 4.79791 270.617 5.68641C270.617 6.93031 270.262 7.99651 269.374 8.52961C268.486 9.06271 267.598 9.41812 266.355 9.41812C266 9.41812 265.467 9.41812 265.112 9.41812C264.757 9.41812 264.224 9.24041 263.692 9.06271L261.916 8.52961C261.561 8.35191 261.206 8.35191 260.85 8.17421C260.495 8.17421 260.318 7.99651 259.963 7.99651C259.252 7.99651 258.897 8.17421 258.542 8.52961C258.187 8.88501 258.009 9.24041 257.832 9.59582C256.766 9.59582 255.879 9.24042 255.168 8.52961C254.458 7.81881 254.103 6.93031 254.103 6.04181C254.103 5.33101 254.28 4.79791 254.458 4.2648C254.636 3.7317 254.991 3.3763 255.523 3.0209C255.878 2.6655 256.411 2.4878 256.944 2.3101C257.477 2.1324 258.009 2.1324 258.542 2.1324C258.897 2.1324 259.43 2.1324 259.963 2.3101C260.495 2.4878 261.383 2.6655 262.626 3.0209Z" fill="#E8386C"/>
<path d="M285.533 13.1498C286.065 12.7944 286.776 12.6167 287.841 12.2613C288.907 11.9059 289.794 11.9059 290.86 11.9059C292.28 11.9059 293.701 12.0836 294.766 12.6167C295.832 12.9721 296.542 13.6829 296.897 14.5714C297.43 16.1707 297.963 17.9477 298.673 19.9024C299.206 21.8571 299.916 23.9895 300.449 26.1219C300.981 28.2543 301.692 30.3867 302.224 32.5192C302.757 34.6516 303.29 36.4286 303.822 38.0279C303.467 38.3833 302.935 38.7387 302.224 39.0941C301.514 39.2718 300.626 39.4495 299.738 39.4495C299.028 39.4495 298.495 39.4495 297.963 39.2718C297.43 39.0941 297.075 38.9164 296.72 38.7387C296.364 38.561 296.187 38.2056 296.009 37.8502C295.832 37.4948 295.654 36.9617 295.477 36.6063L294.766 33.5854H286.776C286.598 34.4739 286.243 35.3624 286.065 36.2509C285.888 37.1394 285.533 38.0279 285.355 38.9164C285 39.0941 284.467 39.2718 284.112 39.2718C283.579 39.4495 283.047 39.4495 282.514 39.4495C281.093 39.4495 279.85 39.2718 279.14 38.7387C278.43 38.2056 278.075 37.4948 278.075 36.6063C278.075 36.2509 278.075 35.7178 278.252 35.3624C278.43 35.007 278.43 34.4739 278.607 33.9408C278.785 33.23 279.14 32.1638 279.495 30.9199C279.85 29.6759 280.206 28.432 280.738 27.0104C281.093 25.5888 281.626 24.1672 282.159 22.7456C282.692 21.324 283.047 19.9024 283.579 18.6585C283.935 17.4146 284.467 16.1707 284.822 15.2822C285 14.3937 285.355 13.6829 285.533 13.1498ZM290.86 18.8362C290.505 20.0801 289.972 21.5017 289.439 22.9233C288.907 24.5226 288.374 25.9442 288.019 27.5435H293.523C293.168 25.9442 292.636 24.3449 292.28 22.9233C291.925 21.324 291.393 20.0801 291.037 18.8362H290.86Z" fill="#E8386C"/>
<path d="M158.393 28.6098C158.037 28.4321 157.682 28.2543 157.327 28.2543C157.327 28.2543 157.15 28.0766 157.327 28.0766L159.458 25.7665C159.813 25.4111 159.813 24.7003 159.458 24.3449L156.972 22.0348V21.8571C157.327 21.8571 157.86 21.6794 158.037 21.324C158.748 20.6132 158.57 19.3693 157.682 18.4808C156.794 17.5923 155.551 17.5923 154.841 18.3031C154.486 18.6585 154.486 19.0139 154.486 19.547C154.486 19.7247 154.308 19.7247 154.308 19.547L151.29 16.5261L148.093 13.5052V13.3275C148.449 13.3275 148.981 13.1498 149.159 12.7944C149.869 12.0836 149.692 10.8397 148.804 9.95121C147.916 9.06271 146.673 9.06271 145.963 9.77351C145.607 10.1289 145.607 10.4843 145.607 11.0174C145.607 11.1951 145.43 11.1951 145.43 11.0174L142.944 8.52961C142.589 8.17421 142.056 8.17421 141.701 8.52961L139.393 11.0174H139.215C139.215 10.662 139.037 10.3066 138.86 10.1289C138.15 9.41811 136.907 9.59581 136.019 10.4843C135.131 11.3728 135.131 12.6167 135.841 13.3275C136.019 13.5052 136.374 13.6829 136.729 13.6829C136.729 13.6829 136.907 13.8606 136.729 13.8606L133.888 16.8815L131.047 19.9024H130.869C130.869 19.547 130.692 19.0139 130.336 18.8362C129.626 18.1254 128.383 18.3031 127.495 19.1916C126.607 20.0801 126.607 21.324 127.318 22.0348C127.673 22.3902 128.028 22.3902 128.561 22.3902C128.738 22.3902 128.738 22.5679 128.561 22.5679L126.252 24.878C125.897 25.4111 125.897 26.1219 126.252 26.4773L128.383 28.6098V28.7875C128.028 28.7875 127.673 28.9651 127.495 29.1428C126.785 29.8537 126.963 31.0976 127.85 31.9861C128.738 32.8746 129.981 32.8746 130.692 32.1638C130.869 31.9861 131.047 31.6307 131.047 31.2753C131.047 31.2753 131.224 31.0976 131.224 31.2753L134.243 34.1185L137.262 36.9617V37.1394C136.907 37.1394 136.551 37.3171 136.374 37.6725C135.664 38.3833 135.841 39.6272 136.729 40.5157C137.617 41.4042 138.86 41.4042 139.57 40.6934C139.748 40.5157 139.925 40.1603 139.925 39.8049C139.925 39.8049 140.103 39.6272 140.103 39.8049L142.411 41.9373C142.766 42.2927 143.477 42.2927 143.832 41.9373L146.318 39.4495C146.318 39.4495 146.318 39.2718 146.14 39.2718C145.607 39.2718 145.075 39.2718 144.72 38.9164C144.009 38.2056 144.187 36.9617 144.897 36.0732C145.785 35.1847 147.028 35.007 147.738 35.7178C148.093 36.0732 148.271 36.6063 148.271 37.1394C148.271 37.3171 148.449 37.3171 148.449 37.1394L151.467 33.9408L154.308 31.0976H154.486C154.486 31.453 154.664 31.8084 155.019 32.1638C155.729 32.8746 156.972 32.6969 157.86 31.8084C158.925 30.5645 159.103 29.1429 158.393 28.6098ZM147.738 26.4773C147.561 26.655 147.383 26.8327 147.383 27.0104C147.028 27.3658 146.673 27.8989 146.14 28.2543C146.14 28.2543 146.14 28.2543 145.963 28.432C145.607 28.7875 145.075 29.3206 144.542 29.676C144.187 30.0314 143.832 30.3868 143.299 30.7422C143.121 30.9199 142.766 30.9199 142.589 30.9199C142.589 30.9199 142.411 30.9199 142.411 30.7422C141.878 30.3868 141.523 30.0314 141.168 29.676C140.103 28.7875 139.037 27.8989 138.327 27.1881C138.15 27.0104 137.972 26.655 137.794 26.4773C137.439 25.7665 137.084 25.2334 137.084 24.5226C137.084 23.6341 137.262 22.7456 137.972 22.2125C138.505 21.5017 139.393 21.1463 140.103 21.1463C140.458 21.1463 140.636 21.1463 140.991 21.324C141.346 21.5017 141.523 21.5017 141.879 21.8571C142.056 22.0348 142.234 22.2125 142.411 22.2125C142.589 22.3902 142.766 22.3902 142.944 22.2125C143.121 22.0348 143.299 21.8571 143.477 21.6794C143.654 21.5017 144.009 21.324 144.364 21.1463C144.72 20.9686 144.897 20.9686 145.252 20.9686C146.14 20.9686 146.85 21.324 147.561 21.8571C147.916 22.2125 148.271 22.7456 148.449 23.4564C148.449 23.6341 148.626 23.9895 148.626 24.1672C148.449 25.0557 148.271 25.7665 147.738 26.4773Z" fill="#E8386C"/>
</g>
<defs>
<clipPath id="clip0_184_6578">
<rect width="304" height="51" fill="white"/>
</clipPath>
</defs>
</svg>
