<svg width="328" height="56" viewBox="0 0 328 56" fill="none" xmlns="http://www.w3.org/2000/svg">
<g clip-path="url(#clip0_658_168)">
<path d="M16.9753 8.48485C17.1639 9.61616 17.9183 10.5589 18.6728 11.3131C18.8614 11.5017 18.8614 11.8788 18.4842 11.8788L6.22425 14.1414C6.03563 14.1414 6.03564 14.33 6.03564 14.5185L8.29901 27.1515C8.29901 27.3401 8.11039 27.7172 7.73316 27.5286C6.60148 26.7744 5.46979 26.3973 4.14949 26.5859C1.32028 27.1515 -0.56586 30.5455 -1.75834e-05 34.1279C0.754439 37.7104 3.58365 40.3502 6.41286 39.7845C7.92178 39.596 8.86485 38.8418 9.6193 37.7104C9.80792 37.5219 10.1851 37.5219 10.1851 37.899L12.4485 50.532C12.4485 50.7205 12.6371 50.7205 12.8257 50.7205L24.897 48.4579C25.0857 48.4579 25.2743 48.6465 25.2743 48.835C24.897 49.7778 24.7084 50.7205 24.897 51.6633C25.4629 54.4916 28.8579 56.3771 32.4416 55.8114C36.0253 55.0572 38.6659 52.229 38.1 49.4007C37.9114 48.4579 37.3456 47.5152 36.5911 46.9495C36.4025 46.7609 36.4025 46.3838 36.7797 46.3838L46.0218 44.6869C47.7194 44.3098 48.851 42.8013 48.6624 40.9158L46.7763 30.5455C46.7763 30.1684 46.3991 30.1684 46.2104 30.5455C45.456 32.0539 44.3243 33.3737 42.8154 33.1852C40.7406 32.9966 39.0431 29.6027 36.4025 27.5286C33.3847 25.266 40.1748 25.0774 43.004 24.5118C44.5129 24.3232 43.3812 20.1751 44.7015 21.3064C44.8901 21.495 45.2674 21.3064 45.2674 20.9293L42.8154 7.73064C42.6268 7.54209 42.4382 7.54209 42.2495 7.54209L29.9896 9.80472C29.801 9.80472 29.6124 9.61616 29.6124 9.42761C30.1782 8.2963 30.5555 7.16499 30.1782 6.03367C29.6124 3.20539 26.2173 1.31987 22.6337 1.88552C19.05 2.63973 16.4094 5.65657 16.9753 8.48485Z" fill="#5FBDAC"/>
<path d="M54.6981 5.09091C54.5095 6.22222 54.8867 7.35353 55.4525 8.29629C55.6411 8.48485 55.4525 8.86195 55.0753 8.6734L42.6268 6.97643C42.4381 6.97643 42.2495 6.97643 42.2495 7.16498L40.3634 19.9865C40.3634 20.1751 39.9862 20.3636 39.7975 20.1751C39.0431 19.0438 37.9114 18.2896 36.5911 18.101C33.7619 17.7239 30.9327 20.3636 30.3668 23.9461C29.801 27.5286 31.8758 30.9226 34.705 31.2997C36.0253 31.4882 37.1569 31.1111 38.2886 30.1683C38.4772 29.9798 38.8545 30.1683 38.8545 30.5455L36.9683 43.367C36.9683 43.5555 36.9683 43.7441 37.157 43.7441L49.2283 45.4411C49.4169 45.4411 49.6055 45.8182 49.4169 46.0067C48.6624 46.7609 48.2852 47.5151 48.0966 48.6465C47.7193 51.4747 50.3599 54.303 53.9436 54.8687C57.5273 55.4343 60.9223 53.3603 61.2996 50.532C61.4882 49.5892 61.2996 48.4579 60.7337 47.7037C60.5451 47.5151 60.7337 47.138 61.1109 47.3266L70.353 48.6465C72.0506 48.835 73.7481 47.7037 73.9367 46.0067L75.4456 35.6364C75.4456 35.2593 75.0684 35.2593 74.8798 35.4478C73.7481 36.5791 73.5595 35.0707 73.5595 33.5623C73.7481 28.4714 70.353 34.505 69.5986 29.7912C69.0327 26.2088 70.353 24.8889 73.1823 25.266C74.6912 25.4545 75.4456 24.7003 76.2001 26.0202C76.3887 26.2088 76.7659 26.2088 76.7659 25.8316L78.6521 12.633C78.6521 12.4444 78.6521 12.2559 78.4634 12.2559L66.0149 10.5589C65.8263 10.5589 65.6377 10.1818 65.8263 9.99326C67.1466 9.0505 67.9011 8.10774 67.9011 6.97643C68.2783 4.14814 65.6377 1.31986 62.054 0.754205C58.4704 0.188549 55.0753 2.07407 54.6981 5.09091Z" fill="#5881C1"/>
<path d="M109.208 20.9293L108.076 7.54208C108.076 7.35353 107.887 7.16498 107.699 7.35353L95.2501 8.48484C95.0615 8.48484 94.8729 8.29629 94.8729 7.91919C95.6273 6.97642 95.816 5.84511 95.816 4.7138C95.6273 1.88552 92.4209 -0.377109 88.6486 -5.10737e-06C84.8763 0.377099 82.2357 3.01683 82.4244 6.03366C82.613 7.16498 82.9902 8.10774 83.9333 9.0505C84.1219 9.23905 83.9333 9.61616 83.7447 9.61616L71.2961 10.7475C71.1075 10.7475 70.9189 10.936 71.1075 11.1246L72.2392 23.9461C72.2392 24.1347 71.862 24.3232 71.6733 24.1347C70.7303 23.1919 69.41 22.8148 68.0897 23.0034C65.0718 23.1919 62.9971 26.5859 63.3743 30.1683C63.7515 33.9394 66.3921 36.5791 69.41 36.3906C70.7303 36.202 71.862 35.6364 72.6164 34.505C72.805 34.3165 73.1823 34.3165 73.1823 34.6936L74.3139 47.5151C74.3139 47.7037 74.5026 47.8922 74.6912 47.7037L86.9511 46.5724C87.1397 46.5724 87.3283 46.7609 87.3283 47.138C86.7625 48.0808 86.5739 49.0236 86.5739 49.9663C86.7625 52.9832 90.1575 55.0572 93.7412 54.6801C97.5135 54.303 100.154 51.6633 99.9655 48.6465C99.9655 47.7037 99.3996 46.7609 98.8338 46.0067C98.6452 45.8182 98.8338 45.4411 99.0224 45.4411L108.453 44.4983C110.151 44.3098 111.471 42.8013 111.282 41.1044L110.339 30.5454C110.339 30.1683 110.151 29.7912 110.151 29.6027C109.962 28.0943 110.151 29.2256 109.962 27.7172C109.396 22.8148 109.773 27.3401 109.585 23.7576" fill="#F9BA48"/>
<path d="M13.9575 19.9865C13.7688 19.6094 13.5802 19.2323 13.3916 18.6667C13.203 18.101 13.203 17.3468 13.203 16.7811C13.203 15.6498 13.3916 14.7071 13.9575 14.1414C14.5233 13.5758 15.2778 13.3872 16.0322 13.3872H36.4025C36.5912 13.7643 36.7798 14.1414 36.9684 14.7071C37.157 15.2727 37.157 15.8384 37.157 16.5926C37.157 17.7239 36.9684 18.6667 36.4025 19.2323C35.8367 19.798 35.0822 19.9865 34.3278 19.9865H29.0466V41.67C28.6694 41.67 28.1035 41.8586 27.3491 41.8586C26.5946 41.8586 25.8402 42.0471 25.0857 42.0471C24.3312 42.0471 23.7654 42.0471 23.1996 41.8586C22.6337 41.67 22.2565 41.4815 21.8793 41.2929C21.502 41.1044 21.3134 40.5387 21.1248 40.1616C20.9362 39.596 20.9362 39.0303 20.9362 38.2761V19.9865H13.9575Z" fill="white"/>
<path d="M47.3422 17.3468C47.3422 16.0269 47.7194 14.8956 48.4738 14.1414C49.2283 13.3872 50.36 13.0101 51.6803 13.0101H67.1466C67.3352 13.3872 67.5239 13.7643 67.7125 14.33C67.9011 14.8956 67.9011 15.6498 67.9011 16.2155C67.9011 17.3468 67.7125 18.2896 67.1466 18.6667C66.5808 19.2323 66.015 19.4209 65.0719 19.4209H55.0753V23.7576H65.6377C65.8263 24.1347 66.0149 24.5118 66.2036 25.0774C66.3922 25.6431 66.3922 26.2088 66.3922 26.7744C66.3922 27.9057 66.2036 28.8485 65.6377 29.2256C65.0719 29.7912 64.506 29.9798 63.563 29.9798H54.8867V34.8822H66.958C67.1466 35.2593 67.3352 35.6364 67.5239 36.202C67.7125 36.7677 67.7125 37.3333 67.7125 37.899C67.7125 39.0303 67.5239 39.9731 66.958 40.5387C66.3922 41.1044 65.8263 41.2929 64.8833 41.2929H51.1144C49.7941 41.2929 48.6624 40.9158 47.908 40.1616C47.1535 39.4074 46.7763 38.2761 46.7763 36.9562V17.3468H47.3422Z" fill="white"/>
<path d="M85.2536 14.33C85.8194 13.9529 86.5739 13.7643 87.7056 13.3872C88.8373 13.1987 89.7803 13.0101 90.912 13.0101C92.4209 13.0101 93.9298 13.1987 95.0615 13.7643C96.1932 14.1414 96.9477 14.8956 97.3249 15.8384C97.8907 17.5354 98.4566 19.4209 99.211 21.4949C99.7769 23.569 100.531 25.8316 101.097 28.0943C101.663 30.3569 102.417 32.6195 102.983 34.8822C103.549 37.1448 104.115 39.0303 104.681 40.7273C104.304 41.1044 103.738 41.4815 102.983 41.8586C102.229 42.0471 101.286 42.2357 100.343 42.2357C99.5883 42.2357 99.0224 42.2357 98.4566 42.0471C97.8907 41.8586 97.5135 41.67 97.1363 41.4815C96.759 41.2929 96.5704 40.9158 96.3818 40.5387C96.1932 40.1616 96.0046 39.596 95.816 39.2189L95.0615 36.0135H86.5739C86.3853 36.9562 86.008 37.899 85.8194 38.8418C85.6308 39.7845 85.2536 40.7273 85.065 41.67C84.6877 41.8586 84.1219 42.0471 83.7447 42.0471C83.1788 42.2357 82.613 42.2357 82.0471 42.2357C80.5382 42.2357 79.2179 42.0471 78.4635 41.4815C77.709 40.9158 77.3318 40.1616 77.3318 39.2189C77.3318 38.8417 77.3318 38.2761 77.5204 37.899C77.709 37.5219 77.709 36.9562 77.8976 36.3906C78.0862 35.6364 78.4635 34.5051 78.8407 33.1852C79.2179 31.8653 79.5952 30.5455 80.161 29.037C80.5382 27.5286 81.1041 26.0202 81.6699 24.5118C82.2358 23.0034 82.613 21.4949 83.1788 20.1751C83.5561 18.8552 84.1219 17.5354 84.4991 16.5926C84.6877 15.6498 85.065 14.8956 85.2536 14.33ZM90.912 20.3636C90.5348 21.6835 89.9689 23.1919 89.4031 24.7003C88.8373 26.3973 88.2714 27.9057 87.8942 29.6027H93.7412C93.364 27.9057 92.7981 26.2088 92.4209 24.7003C92.0437 23.0034 91.4778 21.6835 91.1006 20.3636H90.912Z" fill="white"/>
<path d="M170.507 30.5455C170.13 30.3569 169.753 30.1683 169.375 30.1683C169.375 30.1683 169.187 29.9798 169.375 29.9798L171.639 27.5286C172.016 27.1515 172.016 26.3973 171.639 26.0202L168.998 23.569V23.3805C169.375 23.3805 169.941 23.1919 170.13 22.8148C170.884 22.0606 170.696 20.7407 169.753 19.798C168.81 18.8552 167.489 18.8552 166.735 19.6094C166.358 19.9865 166.358 20.3636 166.358 20.9293C166.358 21.1178 166.169 21.1178 166.169 20.9293L162.963 17.7239L159.568 14.5185V14.33C159.945 14.33 160.511 14.1414 160.699 13.7643C161.454 13.0101 161.265 11.6902 160.322 10.7475C159.379 9.80471 158.059 9.80471 157.304 10.5589C156.927 10.936 156.927 11.3131 156.927 11.8788C156.927 12.0673 156.738 12.0673 156.738 11.8788L154.286 9.4276C153.909 9.0505 153.343 9.0505 152.966 9.4276L150.514 12.0673H150.325C150.325 11.6902 150.137 11.3131 149.948 11.1246C149.194 10.3704 147.873 10.5589 146.93 11.5017C145.987 12.4444 145.987 13.7643 146.742 14.5185C146.93 14.7071 147.308 14.8956 147.685 14.8956C147.685 14.8956 147.873 15.0842 147.685 15.0842L144.667 18.2896L141.649 21.4949H141.461C141.461 21.1178 141.272 20.5522 140.895 20.3636C140.14 19.6094 138.82 19.798 137.877 20.7407C136.934 21.6835 136.934 23.0034 137.688 23.7576C138.066 24.1347 138.443 24.1347 139.009 24.1347C139.197 24.1347 139.197 24.3232 139.009 24.3232L136.557 26.7744C136.179 27.3401 136.179 28.0943 136.557 28.4714L138.82 30.734V30.9226C138.443 30.9226 138.066 31.1111 137.877 31.2997C137.122 32.0539 137.311 33.3737 138.254 34.3165C139.197 35.2593 140.518 35.2593 141.272 34.505C141.461 34.3165 141.649 33.9394 141.649 33.5623C141.649 33.5623 141.838 33.3737 141.838 33.5623L145.044 36.5791L148.251 39.596V39.7845C147.873 39.7845 147.496 39.9731 147.308 40.3502C146.553 41.1044 146.742 42.4242 147.685 43.367C148.628 44.3098 149.948 44.3098 150.703 43.5555C150.891 43.367 151.08 42.9899 151.08 42.6128C151.08 42.6128 151.268 42.4242 151.268 42.6128L153.72 44.8754C154.098 45.2525 154.852 45.2525 155.229 44.8754L157.87 42.2357C157.87 42.2357 157.87 42.0471 157.681 42.0471C157.116 42.0471 156.55 42.0471 156.172 41.67C155.418 40.9158 155.607 39.596 156.361 38.6532C157.304 37.7104 158.624 37.5219 159.379 38.2761C159.756 38.6532 159.945 39.2188 159.945 39.7845C159.945 39.9731 160.133 39.9731 160.133 39.7845L163.34 36.3906L166.358 33.3737H166.546C166.546 33.7508 166.735 34.1279 167.112 34.505C167.867 35.2593 169.187 35.0707 170.13 34.1279C171.262 32.6195 171.262 31.2997 170.507 30.5455ZM159.379 28.4714C159.19 28.6599 159.002 28.8485 159.002 29.037C158.624 29.4141 158.247 29.9798 157.681 30.3569C157.681 30.3569 157.681 30.3569 157.493 30.5455C157.116 30.9226 156.55 31.4882 155.984 31.8653C155.607 32.2424 155.229 32.6195 154.664 32.9966C154.475 33.1852 154.098 33.1852 153.909 33.1852C153.909 33.1852 153.72 33.1852 153.72 32.9966C153.155 32.6195 152.777 32.2424 152.4 31.8653C151.269 30.9226 150.137 29.9798 149.382 29.2256C149.194 29.037 149.005 28.6599 148.817 28.4714C148.439 27.7172 148.062 27.1515 148.062 26.3973C148.062 25.4545 148.251 24.5118 149.005 23.9461C149.571 23.1919 150.514 22.8148 151.268 22.8148C151.646 22.8148 151.834 22.8148 152.212 23.0034C152.589 23.1919 152.777 23.1919 153.155 23.569C153.343 23.7576 153.532 23.9461 153.72 23.9461C153.909 24.1347 154.098 24.1347 154.286 23.9461C154.475 23.7576 154.664 23.569 154.852 23.3805C155.041 23.1919 155.418 23.0034 155.795 22.8148C156.172 22.6263 156.361 22.6263 156.738 22.6263C157.681 22.6263 158.436 23.0034 159.19 23.569C159.568 23.9461 159.945 24.5118 160.133 25.266C160.133 25.4545 160.322 25.8316 160.322 26.0202C159.945 26.963 159.756 27.7172 159.379 28.4714Z" fill="#E8386C"/>
<path d="M126.937 19.6094C124.485 19.6094 122.788 20.3636 121.468 21.8721C120.147 23.3805 119.581 25.4545 119.581 28.0943C119.581 30.734 120.336 32.8081 121.656 34.3165C123.165 35.8249 125.051 36.5791 127.315 36.5791C128.635 36.5791 129.578 36.3906 130.521 36.0135C131.464 35.6364 132.219 35.2593 132.973 34.8822C133.539 35.2593 133.916 35.8249 134.293 36.3906C134.67 36.9562 134.671 37.7104 134.671 38.4646C134.671 39.7845 133.916 40.7273 132.596 41.67C131.087 42.6128 129.012 42.9899 126.183 42.9899C124.108 42.9899 122.222 42.6128 120.336 42.0471C118.45 41.4815 116.941 40.5387 115.62 39.4074C114.3 38.0875 113.168 36.5791 112.414 34.6936C111.66 32.8081 111.282 30.5455 111.282 27.9057C111.282 25.4545 111.66 23.3805 112.414 21.4949C113.168 19.6094 114.3 18.101 115.62 16.7811C116.941 15.4613 118.45 14.5185 120.336 13.9529C122.033 13.3872 123.92 13.0101 125.994 13.0101C128.823 13.0101 131.087 13.3872 132.596 14.33C134.105 15.2727 134.859 16.404 134.859 17.9125C134.859 18.6667 134.67 19.4209 134.293 19.9865C133.916 20.5522 133.35 21.1178 132.973 21.3064C132.219 20.7407 131.275 20.3636 130.332 19.9865C129.201 19.798 128.258 19.6094 126.937 19.6094Z" fill="#E8386C"/>
<path d="M196.159 35.2593C195.782 35.6364 195.216 35.8249 194.65 36.0135C194.084 36.202 193.33 36.3906 192.386 36.3906C191.255 36.3906 190.312 36.202 189.557 36.0135C188.803 35.8249 188.426 35.2593 188.048 34.5051C187.105 31.6768 186.539 29.6027 185.974 27.9057C185.408 26.2088 185.031 24.7003 184.653 23.3805H184.465C184.465 25.266 184.276 26.963 184.276 28.4714C184.276 29.9798 184.276 31.4882 184.276 32.8081C184.276 34.3165 184.276 35.6364 184.276 37.1448C184.276 38.6532 184.087 40.1616 184.087 42.0471C183.71 42.2357 183.144 42.4242 182.579 42.4242C182.013 42.6128 181.258 42.6128 180.692 42.6128C179.372 42.6128 178.24 42.4242 177.486 42.0471C176.731 41.67 176.354 40.7273 176.354 39.596L177.297 15.6498C177.486 15.2727 178.052 14.8956 178.995 14.33C179.749 13.9529 181.07 13.5758 182.579 13.5758C184.276 13.5758 185.596 13.7643 186.539 14.33C187.482 14.8956 188.237 15.6498 188.614 16.7811C188.803 17.5354 189.18 18.4781 189.557 19.4209C189.934 20.3636 190.123 21.3064 190.5 22.4377C190.878 23.3805 191.066 24.5118 191.443 25.4545C191.821 26.3973 192.009 27.3401 192.198 28.0943H192.386C193.141 25.4545 193.895 23.0034 194.65 20.5522C195.404 18.101 196.159 16.0269 196.725 14.33C197.102 14.1414 197.856 13.9529 198.611 13.7643C199.365 13.5758 200.12 13.5758 201.063 13.5758C202.572 13.5758 203.892 13.7643 204.835 14.33C205.778 14.7071 206.344 15.4613 206.533 16.2155C206.721 16.7811 206.721 17.7239 206.91 19.0438C207.098 20.3636 207.287 21.8721 207.287 23.3805C207.476 25.0774 207.664 26.7744 207.664 28.4714C207.853 30.3569 208.041 32.0539 208.041 33.7508C208.23 35.4478 208.23 36.9562 208.419 38.2761C208.419 39.596 208.607 40.7273 208.607 41.4815C208.041 41.8586 207.476 42.0471 206.91 42.2357C206.344 42.4242 205.589 42.4242 204.646 42.4242C203.515 42.4242 202.383 42.2357 201.629 41.8586C200.874 41.4815 200.308 40.7273 200.308 39.4074C200.12 36.0135 199.931 32.9966 199.931 30.1684C199.931 27.5286 199.742 25.266 199.742 23.3805H199.554C199.177 24.5118 198.799 26.2088 198.233 27.9057C197.668 29.9798 196.913 32.2424 196.159 35.2593Z" fill="#E8386C"/>
<path d="M221.999 42.0471C221.622 42.0471 221.056 42.2357 220.301 42.2357C219.547 42.2357 218.792 42.4242 218.038 42.4242C217.284 42.4242 216.718 42.4242 216.152 42.2357C215.586 42.0471 215.209 41.8586 214.832 41.67C214.454 41.4815 214.266 40.9158 214.077 40.5387C213.888 39.9731 213.888 39.4074 213.888 38.6532V16.5926C213.888 16.0269 214.077 15.4613 214.454 15.0842C214.832 14.7071 215.209 14.5185 215.963 14.1414C217.095 13.7643 218.227 13.5758 219.547 13.3872C220.867 13.1987 222.187 13.1987 223.696 13.1987C228.035 13.1987 231.241 14.1414 233.504 16.0269C235.768 17.9125 236.899 20.3636 236.899 23.569C236.899 25.0774 236.711 26.3973 236.145 27.7172C235.579 29.037 235.013 29.9798 234.07 30.9226C233.127 31.8653 231.995 32.431 230.486 32.9966C228.978 33.5623 227.28 33.7508 225.394 33.7508H221.999V42.0471ZM224.451 26.963C225.771 26.963 226.714 26.5859 227.469 26.0202C228.223 25.4545 228.6 24.5118 228.6 23.1919C228.6 22.0606 228.223 21.1178 227.469 20.5522C226.714 19.9865 225.583 19.6094 224.262 19.6094C223.696 19.6094 223.319 19.6094 222.942 19.6094C222.565 19.6094 222.187 19.6094 221.999 19.798V26.963H224.451Z" fill="#E8386C"/>
<path d="M245.576 14.7071C246.141 14.33 246.896 14.1414 248.028 13.7643C249.159 13.5758 250.102 13.3872 251.234 13.3872C252.743 13.3872 254.252 13.5758 255.384 14.1414C256.515 14.5185 257.27 15.2727 257.647 16.2155C258.213 17.9125 258.779 19.798 259.533 21.8721C260.099 23.9461 260.853 26.2088 261.419 28.4714C261.985 30.734 262.74 32.9966 263.305 35.2593C263.871 37.5219 264.437 39.4074 265.003 41.1044C264.626 41.4815 264.06 41.8586 263.305 42.2357C262.551 42.4242 261.608 42.6128 260.665 42.6128C259.91 42.6128 259.344 42.6128 258.779 42.4242C258.213 42.2357 257.836 42.0471 257.458 41.8586C257.081 41.67 256.892 41.2929 256.704 40.9158C256.515 40.5387 256.327 39.9731 256.138 39.596L255.384 36.3906H246.896C246.707 37.3333 246.33 38.2761 246.141 39.2189C245.953 40.1616 245.576 41.1044 245.387 42.0471C245.01 42.2357 244.444 42.4242 244.067 42.4242C243.501 42.6128 242.935 42.6128 242.369 42.6128C240.86 42.6128 239.54 42.4242 238.786 41.8586C238.031 41.2929 237.654 40.5387 237.654 39.596C237.654 39.2189 237.654 38.6532 237.842 38.2761C238.031 37.899 238.031 37.3333 238.22 36.7677C238.408 36.0135 238.786 34.8822 239.163 33.5623C239.54 32.2424 239.917 30.9226 240.483 29.6027C240.86 28.0943 241.426 26.5859 241.992 25.0774C242.558 23.569 242.935 22.0606 243.501 20.7407C243.878 19.4209 244.444 18.101 244.821 17.1583C245.01 16.0269 245.387 15.2727 245.576 14.7071ZM251.234 20.7407C250.857 22.0606 250.291 23.569 249.725 25.0774C249.159 26.7744 248.782 28.2828 248.216 29.9798H254.063C253.686 28.2828 253.12 26.5859 252.743 25.0774C252.366 23.569 251.8 22.0606 251.423 20.7407H251.234Z" fill="#E8386C"/>
<path d="M294.049 41.1044C293.672 41.4815 292.918 41.8586 292.163 42.0471C291.409 42.2357 290.277 42.4242 289.146 42.4242C288.014 42.4242 286.882 42.2357 285.939 41.8586C284.996 41.4815 284.053 40.7273 283.487 39.4074L278.772 29.9798C278.395 29.037 277.829 28.0943 277.451 27.3401C277.074 26.3973 276.697 25.4545 276.32 24.3232H276.131C276.32 26.0202 276.32 27.7172 276.32 29.4141C276.32 31.1111 276.32 32.8081 276.32 34.505V41.67C275.943 41.67 275.377 41.8586 274.811 41.8586C274.056 41.8586 273.491 42.0471 272.736 42.0471C271.982 42.0471 271.416 42.0471 270.85 41.8586C270.284 41.8586 269.907 41.67 269.53 41.2929C269.152 41.1044 268.964 40.5387 268.775 40.1616C268.587 39.596 268.587 39.0303 268.587 38.2761V15.2727C268.964 14.7071 269.718 14.1414 270.661 13.9529C271.604 13.5758 272.547 13.5758 273.491 13.5758C274.622 13.5758 275.754 13.7643 276.697 14.1414C277.829 14.5185 278.583 15.2727 279.149 16.5926L283.864 26.0202C284.242 26.963 284.807 27.9057 285.185 28.6599C285.562 29.6027 285.939 30.5455 286.316 31.6768H286.505C286.316 29.9798 286.316 28.2828 286.316 26.5859C286.316 24.8889 286.316 23.1919 286.316 21.4949V13.9529C286.694 13.9529 287.259 13.7643 287.825 13.7643C288.58 13.7643 289.145 13.5758 289.9 13.5758C291.22 13.5758 292.352 13.7643 293.106 14.33C293.861 14.8956 294.238 15.8384 294.238 17.3468V41.1044H294.049ZM281.601 4.14814C282.167 4.3367 282.544 4.3367 282.921 4.52525C283.298 4.52525 283.676 4.7138 283.864 4.7138C284.619 4.7138 284.996 4.52525 285.373 4.14814C285.75 3.77104 285.939 3.39394 286.128 3.20538C287.259 3.20538 288.202 3.58249 288.768 4.3367C289.523 5.09091 289.9 5.84511 289.9 6.97643C289.9 8.29629 289.523 9.42761 288.58 9.99326C287.637 10.5589 286.694 10.936 285.373 10.936C284.996 10.936 284.43 10.936 284.053 10.936C283.676 10.936 283.11 10.7475 282.544 10.5589L280.658 9.99326C280.281 9.80471 279.903 9.80471 279.526 9.61616C279.526 9.42761 279.149 9.42761 278.96 9.42761C278.206 9.42761 277.829 9.61616 277.451 9.99326C277.074 10.3704 276.886 10.7475 276.697 11.1246C275.565 11.1246 274.622 10.7475 274.056 9.99326C273.302 9.23905 272.925 8.48484 272.925 7.35353C272.925 6.59932 273.113 6.03367 273.302 5.46801C273.491 4.90235 273.868 4.52525 274.434 4.14814C274.811 3.77104 275.377 3.58249 275.943 3.39394C276.508 3.20538 277.074 3.20538 277.64 3.20538C278.017 3.20538 278.583 3.20538 279.149 3.39394C279.338 3.39394 280.281 3.77104 281.601 4.14814Z" fill="#E8386C"/>
<path d="M298.388 27.9057C298.388 25.4545 298.765 23.3805 299.519 21.4949C300.274 19.6094 301.405 18.101 302.726 16.7811C304.046 15.4613 305.555 14.5185 307.441 13.9529C309.139 13.3872 311.213 13.0101 313.288 13.0101C315.363 13.0101 317.249 13.3872 319.135 13.9529C320.833 14.5185 322.53 15.6498 323.85 16.7811C325.171 18.101 326.302 19.6094 327.057 21.4949C327.811 23.3805 328.189 25.4545 328.189 27.9057C328.189 30.3569 327.811 32.431 327.057 34.3165C326.302 36.202 325.359 37.7104 324.039 39.0303C322.719 40.3502 321.21 41.2929 319.324 41.8586C317.438 42.4242 315.551 42.8013 313.477 42.8013C311.402 42.8013 309.327 42.4242 307.63 41.8586C305.744 41.1044 304.235 40.1616 302.914 39.0303C301.594 37.7104 300.651 36.202 299.896 34.3165C298.765 32.431 298.388 30.3569 298.388 27.9057ZM306.875 27.9057C306.875 30.734 307.441 32.8081 308.573 34.3165C309.704 35.6364 311.213 36.3906 313.288 36.3906C315.174 36.3906 316.872 35.6364 318.003 34.3165C319.135 32.9966 319.701 30.734 319.701 27.9057C319.701 25.0774 319.135 23.0034 318.003 21.6835C316.872 20.3636 315.363 19.6094 313.288 19.6094C311.402 19.6094 309.893 20.3636 308.573 21.6835C307.441 23.0034 306.875 25.0774 306.875 27.9057Z" fill="#E8386C"/>
</g>
<defs>
<clipPath id="clip0_658_168">
<rect width="328" height="56" fill="white"/>
</clipPath>
</defs>
</svg>
