<svg width="1920" height="211" viewBox="0 0 1920 211" fill="none" xmlns="http://www.w3.org/2000/svg">
<g filter="url(#filter0_d_966_667)">
<path d="M1707.42 51.6913C1707.42 17.3904 1645.1 11.0101 1789.4 11.0101C1933.69 11.0101 1970.36 17.3901 1970.36 51.6911C1970.36 85.9921 1988.35 163.01 1844.05 163.01C1699.75 163.01 1707.42 85.9923 1707.42 51.6913Z" fill="white"/>
<ellipse cx="1457.47" cy="80.0005" rx="120.933" ry="69" transform="rotate(-180 1457.47 80.0005)" fill="white"/>
<ellipse cx="1647.06" cy="87.0088" rx="120.933" ry="69" transform="rotate(-180 1647.06 87.0088)" fill="white"/>
<ellipse cx="357.068" cy="106.011" rx="120.933" ry="69" transform="rotate(-180 357.068 106.011)" fill="white"/>
<ellipse cx="162.5" cy="108.011" rx="93.5" ry="69" transform="rotate(-180 162.5 108.011)" fill="white"/>
<ellipse cx="1268.41" cy="80.0069" rx="95.8037" ry="69" transform="rotate(-180 1268.41 80.0069)" fill="white"/>
<ellipse cx="837.5" cy="95.5106" rx="137.5" ry="79.5" transform="rotate(-180 837.5 95.5106)" fill="white"/>
<ellipse cx="597.5" cy="108.011" rx="170.5" ry="92" transform="rotate(-180 597.5 108.011)" fill="white"/>
<ellipse cx="1075.95" cy="95.5106" rx="119.048" ry="79.5" transform="rotate(-180 1075.95 95.5106)" fill="white"/>
<ellipse cx="-9.38667" cy="105.51" rx="131.612" ry="94.5" transform="rotate(-180 -9.38667 105.51)" fill="white"/>
</g>
<rect x="2419" y="91.0099" width="2560" height="85" transform="rotate(-180 2419 91.0099)" fill="white"/>
<defs>
<filter id="filter0_d_966_667" x="-141.799" y="0.200549" width="2580.66" height="210.61" filterUnits="userSpaceOnUse" color-interpolation-filters="sRGB">
<feFlood flood-opacity="0" result="BackgroundImageFix"/>
<feColorMatrix in="SourceAlpha" type="matrix" values="0 0 0 0 0 0 0 0 0 0 0 0 0 0 0 0 0 0 127 0" result="hardAlpha"/>
<feOffset dx="10"/>
<feGaussianBlur stdDeviation="5.4"/>
<feComposite in2="hardAlpha" operator="out"/>
<feColorMatrix type="matrix" values="0 0 0 0 0.545833 0 0 0 0 0.52309 0 0 0 0 0.52309 0 0 0 0.25 0"/>
<feBlend mode="normal" in2="BackgroundImageFix" result="effect1_dropShadow_966_667"/>
<feBlend mode="normal" in="SourceGraphic" in2="effect1_dropShadow_966_667" result="shape"/>
</filter>
</defs>
</svg>
