<svg width="2554" height="211" viewBox="0 0 2554 211" fill="none" xmlns="http://www.w3.org/2000/svg">
<g clip-path="url(#clip0_619_2)">
<g filter="url(#filter0_d_619_2)">
<path d="M317.028 153.977C317.028 185.099 380.188 210.328 244.324 210.328C108.46 210.328 1.14111 158.536 1.14111 127.414C1.14111 96.2928 26.668 40.9143 162.532 40.9143C269.708 40.9144 317.028 122.856 317.028 153.977Z" fill="white"/>
<path d="M710.129 169.733C710.129 204.034 772.303 210.414 628.341 210.414C484.38 210.414 447.796 204.034 447.796 169.733C447.796 135.432 429.855 58.4141 573.816 58.4141C717.777 58.4141 710.129 135.432 710.129 169.733Z" fill="white"/>
<path d="M467.022 144.158C467.022 180.75 474.336 210.414 372.506 210.414C270.676 210.414 246.518 180.75 246.518 144.158C246.518 107.566 270.676 58.4141 372.506 58.4141C474.336 58.4141 467.022 107.566 467.022 144.158Z" fill="white"/>
<path d="M959.492 210.424C1026.13 210.424 1080.14 179.532 1080.14 141.424C1080.14 103.316 1026.13 72.4241 959.492 72.4241C892.858 72.4241 838.84 103.316 838.84 141.424C838.84 179.532 892.858 210.424 959.492 210.424Z" fill="white"/>
<path d="M770.349 203.415C836.983 203.415 891.001 172.523 891.001 134.415C891.001 96.3074 836.983 65.415 770.349 65.415C703.715 65.415 649.697 96.3074 649.697 134.415C649.697 172.523 703.715 203.415 770.349 203.415Z" fill="white"/>
<path d="M2057.34 184.413C2123.97 184.413 2177.99 153.521 2177.99 115.413C2177.99 77.3054 2123.97 46.4131 2057.34 46.4131C1990.7 46.4131 1936.69 77.3054 1936.69 115.413C1936.69 153.521 1990.7 184.413 2057.34 184.413Z" fill="white"/>
<path d="M2251.46 182.413C2302.97 182.413 2344.74 151.521 2344.74 113.413C2344.74 75.3054 2302.97 44.4131 2251.46 44.4131C2199.94 44.4131 2158.17 75.3054 2158.17 113.413C2158.17 151.521 2199.94 182.413 2251.46 182.413Z" fill="white"/>
<path d="M1148.12 210.417C1200.91 210.417 1243.7 179.525 1243.7 141.417C1243.7 103.309 1200.91 72.417 1148.12 72.417C1095.33 72.417 1052.54 103.309 1052.54 141.417C1052.54 179.525 1095.33 210.417 1148.12 210.417Z" fill="white"/>
<path d="M1578.03 205.413C1653.79 205.413 1715.21 169.82 1715.21 125.913C1715.21 82.0064 1653.79 46.4131 1578.03 46.4131C1502.26 46.4131 1440.84 82.0064 1440.84 125.913C1440.84 169.82 1502.26 205.413 1578.03 205.413Z" fill="white"/>
<path d="M1817.47 205.413C1911.41 205.413 1987.57 164.223 1987.57 113.413C1987.57 62.6029 1911.41 21.4131 1817.47 21.4131C1723.52 21.4131 1647.36 62.6029 1647.36 113.413C1647.36 164.223 1723.52 205.413 1817.47 205.413Z" fill="white"/>
<path d="M1340.13 205.413C1405.73 205.413 1458.9 169.82 1458.9 125.913C1458.9 82.0064 1405.73 46.4131 1340.13 46.4131C1274.53 46.4131 1221.36 82.0064 1221.36 125.913C1221.36 169.82 1274.53 205.413 1340.13 205.413Z" fill="white"/>
<path d="M2422.95 210.414C2495.46 210.414 2554.25 168.105 2554.25 115.914C2554.25 63.7232 2495.46 21.4141 2422.95 21.4141C2350.43 21.4141 2291.64 63.7232 2291.64 115.914C2291.64 168.105 2350.43 210.414 2422.95 210.414Z" fill="white"/>
</g>
<path d="M2554.25 125.414H0.201172V210.414H2554.25V125.414Z" fill="white"/>
</g>
<defs>
<filter id="filter0_d_619_2" x="-9.65889" y="0.613086" width="2574.71" height="210.611" filterUnits="userSpaceOnUse" color-interpolation-filters="sRGB">
<feFlood flood-opacity="0" result="BackgroundImageFix"/>
<feColorMatrix in="SourceAlpha" type="matrix" values="0 0 0 0 0 0 0 0 0 0 0 0 0 0 0 0 0 0 127 0" result="hardAlpha"/>
<feOffset dy="-10"/>
<feGaussianBlur stdDeviation="5.4"/>
<feComposite in2="hardAlpha" operator="out"/>
<feColorMatrix type="matrix" values="0 0 0 0 0.545833 0 0 0 0 0.52309 0 0 0 0 0.52309 0 0 0 0.25 0"/>
<feBlend mode="normal" in2="BackgroundImageFix" result="effect1_dropShadow_619_2"/>
<feBlend mode="normal" in="SourceGraphic" in2="effect1_dropShadow_619_2" result="shape"/>
</filter>
<clipPath id="clip0_619_2">
<rect width="2554" height="211" fill="white"/>
</clipPath>
</defs>
</svg>
