<svg width="260" height="528" viewBox="0 0 260 528" fill="none" xmlns="http://www.w3.org/2000/svg">
<path opacity="0.3" d="M142.925 195.812C142.725 195.112 142.225 194.612 141.525 194.312C141.425 194.212 141.425 194.012 141.525 194.012L148.925 191.312C149.025 191.312 149.125 191.212 149.025 191.112L146.225 183.512C146.125 183.312 146.325 183.212 146.525 183.312C147.225 183.712 148.125 183.812 148.825 183.512C150.525 182.912 151.325 180.612 150.525 178.412C149.725 176.212 147.725 175.012 145.925 175.612C145.125 175.912 144.625 176.512 144.225 177.212C144.125 177.412 143.925 177.312 143.825 177.212L141.025 169.612C141.025 169.512 140.925 169.412 140.825 169.512L133.625 172.112C133.425 172.212 133.325 172.012 133.425 171.912C133.725 171.212 133.725 170.612 133.525 170.012C132.925 168.312 130.625 167.512 128.425 168.312C126.225 169.112 125.025 171.112 125.625 172.912C125.825 173.512 126.225 174.012 126.825 174.312C126.925 174.412 126.925 174.612 126.825 174.612L121.325 176.612C120.325 177.012 119.725 178.112 120.125 179.112L122.425 185.312C122.525 185.512 122.725 185.512 122.825 185.312C123.125 184.312 123.725 183.612 124.625 183.312C126.325 182.712 128.425 183.912 129.225 186.112C130.025 188.312 129.225 190.612 127.525 191.212C126.625 191.512 125.625 191.412 124.825 190.812C124.625 190.712 124.525 190.912 124.525 191.012L127.425 198.912C127.425 199.012 127.525 199.112 127.625 199.012L135.025 196.312C135.225 196.212 135.325 196.412 135.225 196.512C134.925 197.212 134.925 197.912 135.125 198.612C135.725 200.312 138.025 201.112 140.225 200.312C142.425 199.512 143.525 197.612 142.925 195.812Z" fill="#4F89EC"/>
<path opacity="0.3" d="M33.4148 28.2182C32.9052 27.6984 32.2272 27.4974 31.4689 27.5676C31.3333 27.5274 31.2379 27.3516 31.3258 27.3039L36.542 21.4012C36.6299 21.3535 36.6701 21.218 36.5345 21.1778L30.4485 15.8335C30.2652 15.7054 30.3933 15.5221 30.6168 15.5146C31.4228 15.5323 32.2616 15.1909 32.7337 14.5934C33.9417 13.2552 33.5478 10.8521 31.7953 9.30004C30.0428 7.748 27.7126 7.64724 26.4168 9.03314C25.8567 9.6784 25.7034 10.4442 25.6858 11.2503C25.6933 11.4737 25.4698 11.4812 25.3342 11.4411L19.2482 6.0968C19.2005 6.0089 19.0649 5.96871 19.0247 6.1043L13.9367 11.8237C13.8086 12.007 13.6253 11.8789 13.6655 11.7433C13.5953 10.985 13.3091 10.4576 12.8471 10.0257C11.5089 8.81768 9.10584 9.21158 7.55379 10.9641C6.00175 12.7165 5.90099 15.0467 7.28689 16.3426C7.74886 16.7746 8.33891 17.0232 9.00935 17.0007C9.14494 17.0409 9.24034 17.2167 9.15245 17.2644L5.27234 21.6456C4.58421 22.4741 4.58153 23.7271 5.41007 24.4152L10.3888 28.7675C10.5721 28.8956 10.7479 28.8002 10.7404 28.5767C10.5271 27.5547 10.7206 26.6533 11.3685 25.9603C12.5765 24.6221 14.9946 24.6752 16.747 26.2272C18.4995 27.7793 18.8934 30.1824 17.6854 31.5206C17.0375 32.2135 16.1109 32.6026 15.1216 32.4568C14.8981 32.4643 14.9056 32.6878 14.9533 32.7757L21.2702 38.3359C21.3179 38.4238 21.4535 38.464 21.4937 38.3284L26.7099 32.4257C26.838 32.2425 27.0212 32.3705 26.9811 32.5061C27.0513 33.2645 27.3851 33.8797 27.8948 34.3996C29.233 35.6075 31.6361 35.2136 33.1881 33.4612C34.7402 31.7087 34.8007 29.5141 33.4148 28.2182Z" fill="#4F89EC"/>
<g opacity="0.3" clip-path="url(#clip0_552_129)">
<path d="M165.6 523.3C166.5 521.8 166.7 520 166.4 518.3C166.3 517.9 166.8 517.6 167.1 517.8L183.7 527.5C183.9 527.7 184.2 527.6 184.3 527.4L194.3 510.3C194.5 509.9 195.1 510 195.2 510.4C195.7 512.4 196.8 514.1 198.5 515.1C202.4 517.4 207.9 515.3 210.8 510.3C213.7 505.4 212.8 499.5 208.9 497.2C207.2 496.2 205.2 496 203.2 496.6C202.8 496.7 202.5 496.3 202.7 495.9L212.7 478.8C212.8 478.6 212.8 478.3 212.5 478.1L196.3 468.7C196 468.5 196 468 196.4 467.8C197.8 467.2 199 466.2 199.8 464.9C202.1 461 200 455.5 195 452.6C190.1 449.7 184.2 450.6 181.9 454.5C181.1 455.8 180.9 457.4 181 458.9C181 459.3 180.6 459.6 180.3 459.4L167.8 452.1C165.5 450.7 162.5 451.5 161.1 453.8L152.9 467.8C152.7 468.2 153.1 468.7 153.5 468.5C155.9 467.6 158.3 467.6 160.3 468.7C164.2 471 165.1 476.8 162.2 481.8C159.3 486.7 153.8 488.9 149.9 486.6C147.9 485.4 146.7 483.3 146.4 480.9C146.3 480.4 145.7 480.3 145.5 480.7L135.1 498.5C135 498.7 135 499 135.3 499.2L151.9 508.9C152.2 509.1 152.2 509.6 151.8 509.8C150.1 510.4 148.7 511.4 147.8 512.9C145.5 516.8 147.6 522.3 152.6 525.2C157.4 528 163.3 527.2 165.6 523.3Z" fill="#44D3B5"/>
<path d="M175.04 397.739C176.062 397.481 176.573 396.705 177.084 395.929C177.084 395.671 177.595 395.671 177.595 395.929L181.173 406.272C181.173 406.531 181.428 406.531 181.428 406.531L191.905 402.652C192.161 402.652 192.417 402.911 192.161 402.911C191.65 403.945 191.65 404.979 191.905 406.272C192.672 408.599 195.994 409.633 198.805 408.599C201.871 407.565 203.66 404.721 202.638 402.135C202.382 401.101 201.36 400.325 200.338 399.808C200.083 399.808 200.083 399.291 200.338 399.291L210.815 395.412C211.071 395.412 211.071 395.154 211.071 395.154L207.493 385.069C207.493 384.811 207.493 384.552 207.749 384.811C208.515 385.069 209.537 385.069 210.304 384.811C212.604 384.035 213.626 380.674 212.604 377.829C211.582 374.727 208.771 372.917 206.215 373.951C205.449 374.21 204.682 374.727 204.171 375.502C204.171 375.761 203.66 375.761 203.66 375.502L200.849 367.745C200.338 366.194 198.805 365.677 197.272 366.194L188.839 369.297C188.583 369.297 188.583 369.814 188.839 369.814C190.117 370.331 191.139 371.107 191.65 372.4C192.417 374.727 190.883 377.571 187.817 378.864C184.75 379.898 181.684 378.864 180.917 376.537C180.406 375.244 180.662 373.951 181.428 372.658C181.684 372.4 181.429 372.141 181.173 372.141L170.44 376.278C170.185 376.278 170.185 376.537 170.185 376.537L173.762 386.879C173.762 387.138 173.507 387.396 173.507 387.138C172.485 386.879 171.718 386.621 170.696 387.138C168.396 387.914 167.374 391.275 168.396 394.119C169.929 396.964 172.74 398.515 175.04 397.739Z" fill="#44D3B5"/>
<path d="M231.5 499.8C232.2 499.6 232.7 499.1 233 498.4C233.1 498.3 233.3 498.3 233.3 498.4L236 505.8C236 505.9 236.1 506 236.2 505.9L243.8 503.1C244 503 244.1 503.2 244 503.4C243.6 504.1 243.5 505 243.8 505.7C244.4 507.4 246.7 508.2 248.9 507.4C251.1 506.6 252.3 504.6 251.7 502.8C251.4 502 250.8 501.5 250.1 501.1C249.9 501 250 500.8 250.1 500.7L257.7 497.9C257.8 497.9 257.9 497.8 257.8 497.7L255.2 490.5C255.1 490.3 255.3 490.2 255.4 490.3C256.1 490.6 256.7 490.6 257.3 490.4C259 489.8 259.8 487.5 259 485.3C258.2 483.1 256.2 481.9 254.4 482.5C253.8 482.7 253.3 483.1 253 483.7C252.9 483.8 252.7 483.8 252.7 483.7L250.7 478.2C250.3 477.2 249.2 476.6 248.2 477L242 479.3C241.8 479.4 241.8 479.6 242 479.7C243 480 243.7 480.6 244 481.5C244.6 483.2 243.4 485.3 241.2 486.1C239 486.9 236.7 486.1 236.1 484.4C235.8 483.5 235.9 482.5 236.5 481.7C236.6 481.5 236.4 481.4 236.3 481.4L228.4 484.3C228.3 484.3 228.2 484.4 228.3 484.5L231 491.9C231.1 492.1 230.9 492.2 230.8 492.1C230.1 491.8 229.4 491.8 228.7 492C227 492.6 226.2 494.9 227 497.1C227.8 499.3 229.7 500.4 231.5 499.8Z" fill="#4F89EC"/>
<path d="M224.5 450.5C224.6 450.7 224.8 450.9 225 451C225.1 451 225 451.1 225 451.1L223 451.9C222.6 452 222.5 452.5 222.6 452.8L223.4 454.8C223.4 454.9 223.4 454.9 223.3 454.9C223 454.8 222.7 454.8 222.5 454.9C221.9 455.1 221.7 456 222 456.7C222.3 457.5 223 457.9 223.6 457.6C223.9 457.5 224.1 457.3 224.2 457C224.2 456.9 224.3 456.9 224.3 457L225.4 459.6L226.5 462.2C226.5 462.3 226.5 462.3 226.4 462.3C226.1 462.2 225.8 462.2 225.6 462.3C225 462.5 224.8 463.4 225.1 464.1C225.4 464.9 226.1 465.3 226.7 465C227 464.9 227.2 464.7 227.3 464.4C227.3 464.3 227.4 464.3 227.4 464.4L228.3 466.6C228.4 466.9 228.7 467 229 466.9L231.1 466.1C231.2 466.1 231.2 466.1 231.2 466.2C231.1 466.4 231.1 466.6 231.2 466.8C231.4 467.4 232.3 467.6 233 467.3C233.8 467 234.2 466.3 233.9 465.7C233.8 465.5 233.7 465.3 233.5 465.2L233.5 465.1L236 464.1L238.5 463.1C238.6 463.1 238.6 463.1 238.6 463.2C238.5 463.5 238.5 463.8 238.6 464C238.8 464.6 239.7 464.8 240.4 464.5C241.2 464.2 241.6 463.5 241.3 462.9C241.2 462.6 241 462.4 240.7 462.3C240.6 462.3 240.6 462.2 240.7 462.2L242.7 461.4C243.1 461.2 243.3 460.8 243.1 460.4L242.4 458.5C242.4 458.4 242.4 458.4 242.5 458.4C242.7 458.5 242.9 458.5 243.1 458.4C243.7 458.2 243.9 457.3 243.6 456.6C243.3 455.8 242.6 455.4 242 455.7C241.8 455.8 241.6 455.9 241.5 456.1L241.4 456.1L240.4 453.6L239.4 451.1C239.4 451 239.4 451 239.5 451C239.7 451.1 239.9 451.1 240.1 451C240.7 450.8 240.9 449.9 240.6 449.2C240.3 448.4 239.6 448 239 448.3C238.8 448.4 238.6 448.5 238.5 448.7L238.4 448.7L237.6 446.8C237.5 446.4 237.1 446.3 236.7 446.4L234.5 447.3C234.4 447.3 234.4 447.4 234.5 447.4C234.8 447.5 235.1 447.7 235.2 448C235.4 448.6 235 449.3 234.3 449.6C233.5 449.9 232.7 449.7 232.5 449.1C232.4 448.8 232.4 448.4 232.6 448.1C232.6 448 232.6 448 232.5 448L229.8 449.1L227.3 450.1C227.2 450.1 227.2 450.1 227.2 450C227.3 449.8 227.3 449.5 227.2 449.3C227 448.7 226.1 448.5 225.4 448.8C224.7 449.2 224.3 449.9 224.5 450.5ZM230.3 454.7C230.4 454.6 230.6 454.5 230.7 454.4C231 454.2 231.4 454.1 231.7 454L231.8 454C232.2 453.9 232.6 453.8 233 453.6C233.3 453.5 233.7 453.4 234 453.3C234.2 453.2 234.3 453.3 234.5 453.4C234.5 453.4 234.5 453.5 234.6 453.5C234.8 453.9 234.9 454.2 235.1 454.5C235.5 455.4 235.9 456.1 236.1 456.8C236.2 457 236.2 457.2 236.2 457.3C236.3 457.8 236.2 458.3 236 458.7C235.8 459.3 235.4 459.7 234.9 459.9C234.4 460.1 233.8 460.1 233.3 459.9C233.1 459.8 233 459.7 232.8 459.6C232.6 459.5 232.5 459.3 232.4 459.1C232.3 459 232.3 458.8 232.2 458.7C232.2 458.6 232 458.5 231.9 458.6C231.8 458.7 231.6 458.7 231.5 458.8C231.3 458.9 231.1 458.9 230.9 458.9C230.7 458.9 230.5 458.8 230.3 458.8C229.8 458.6 229.4 458.2 229.2 457.6C229.1 457.2 229 456.8 229.1 456.4C229.1 456.2 229.2 456.1 229.3 455.9C229.5 455.3 229.8 455 230.3 454.7Z" fill="#4F89EC"/>
</g>
<g opacity="0.3">
<path d="M227.3 93.7C225.8 92.8 224 92.6 222.3 92.9C221.9 93 221.6 92.5 221.8 92.2L231.5 75.6C231.7 75.4 231.6 75.1 231.4 75L214.3 65C213.9 64.8 214 64.2 214.4 64.1C216.4 63.6 218.1 62.5 219.1 60.8C221.4 56.9 219.3 51.4 214.3 48.5C209.4 45.6 203.5 46.5 201.2 50.4C200.2 52.1 200 54.1 200.6 56.1C200.7 56.5 200.3 56.8 199.9 56.6L182.8 46.6C182.6 46.5 182.3 46.5 182.1 46.8L172.7 63C172.5 63.3 172 63.3 171.8 62.9C171.2 61.5 170.2 60.3 168.9 59.5C165 57.2 159.5 59.3 156.6 64.3C153.7 69.2 154.6 75.1 158.5 77.4C159.8 78.2 161.4 78.4 162.9 78.3C163.3 78.3 163.6 78.7 163.4 79L156.1 91.5C154.7 93.8 155.5 96.8 157.8 98.2L171.8 106.4C172.2 106.6 172.7 106.2 172.5 105.8C171.6 103.4 171.6 101 172.7 99C175 95.1 180.8 94.2 185.8 97.1C190.7 100 192.9 105.5 190.6 109.4C189.4 111.4 187.3 112.6 184.9 112.9C184.4 113 184.3 113.6 184.7 113.8L202.5 124.2C202.7 124.3 203 124.3 203.2 124L212.9 107.4C213.1 107.1 213.6 107.1 213.8 107.5C214.4 109.2 215.4 110.6 216.9 111.5C220.8 113.8 226.3 111.7 229.2 106.7C232 101.9 231.2 96 227.3 93.7Z" fill="#44D3B5"/>
<path d="M107.42 83.9296C107.057 82.4763 105.967 81.7496 104.877 81.0229C104.514 81.0229 104.514 80.2963 104.877 80.2963L119.41 75.2097C119.773 75.2097 119.773 74.8464 119.773 74.8464L114.324 59.95C114.324 59.5867 114.687 59.2233 114.687 59.5866C116.14 60.3133 117.594 60.3133 119.41 59.95C122.68 58.86 124.133 54.1368 122.68 50.1402C121.227 45.7802 117.23 43.2369 113.597 44.6903C112.144 45.0536 111.054 46.5069 110.327 47.9602C110.327 48.3235 109.6 48.3235 109.6 47.9602L104.15 33.0638C104.15 32.7005 103.787 32.7005 103.787 32.7005L89.6173 37.787C89.254 37.787 88.8907 37.787 89.254 37.4237C89.6173 36.3337 89.6173 34.8804 89.254 33.7904C88.164 30.5205 83.4408 29.0672 79.4442 30.5205C75.0843 31.9738 72.541 35.9704 73.9943 39.6037C74.3576 40.6937 75.0842 41.7836 76.1742 42.5103C76.5375 42.5103 76.5375 43.2369 76.1742 43.2369L65.2744 47.2336C63.0944 47.9602 62.3678 50.1402 63.0945 52.3201L67.4544 64.3099C67.4544 64.6732 68.181 64.6732 68.181 64.3099C68.9077 62.4933 69.9977 61.04 71.8143 60.3133C75.0842 59.2233 79.0808 61.4033 80.8975 65.7632C82.3508 70.1231 80.8975 74.4831 77.6275 75.573C75.8109 76.2997 73.9943 75.9364 72.1776 74.8464C71.8143 74.4831 71.4509 74.8464 71.4509 75.2097L77.2642 90.4694C77.2642 90.8328 77.6275 90.8328 77.6275 90.8328L92.1606 85.7462C92.5239 85.7462 92.8872 86.1095 92.5239 86.1095C92.1606 87.5628 91.7973 88.6528 92.5239 90.1061C93.6139 93.3761 98.3371 94.8294 102.334 93.3761C106.33 91.1961 108.51 87.1995 107.42 83.9296Z" fill="#44D3B5"/>
<path d="M209.925 31.8119C209.725 31.1119 209.225 30.6119 208.525 30.3119C208.425 30.2119 208.425 30.0119 208.525 30.0119L215.925 27.3119C216.025 27.3119 216.125 27.2119 216.025 27.1119L213.225 19.5119C213.125 19.3119 213.325 19.2119 213.525 19.3119C214.225 19.7119 215.125 19.8119 215.825 19.5119C217.525 18.9119 218.325 16.6119 217.525 14.4119C216.725 12.2119 214.725 11.0119 212.925 11.6119C212.125 11.9119 211.625 12.5119 211.225 13.2119C211.125 13.4119 210.925 13.3119 210.825 13.2119L208.025 5.61195C208.025 5.51195 207.925 5.41195 207.825 5.51195L200.625 8.11195C200.425 8.21195 200.325 8.01195 200.425 7.91195C200.725 7.21195 200.725 6.61195 200.525 6.01195C199.925 4.31195 197.625 3.51195 195.425 4.31195C193.225 5.11195 192.025 7.11195 192.625 8.91195C192.825 9.51195 193.225 10.0119 193.825 10.3119C193.925 10.4119 193.925 10.6119 193.825 10.6119L188.325 12.6119C187.325 13.0119 186.725 14.1119 187.125 15.1119L189.425 21.3119C189.525 21.5119 189.725 21.5119 189.825 21.3119C190.125 20.3119 190.725 19.6119 191.625 19.3119C193.325 18.7119 195.425 19.9119 196.225 22.1119C197.025 24.3119 196.225 26.6119 194.525 27.2119C193.625 27.5119 192.625 27.4119 191.825 26.8119C191.625 26.7119 191.525 26.9119 191.525 27.0119L194.425 34.9119C194.425 35.0119 194.525 35.1119 194.625 35.0119L202.025 32.3119C202.225 32.2119 202.325 32.4119 202.225 32.5119C201.925 33.2119 201.925 33.9119 202.125 34.6119C202.725 36.3119 205.025 37.1119 207.225 36.3119C209.425 35.5119 210.525 33.6119 209.925 31.8119Z" fill="#4F89EC"/>
<path d="M154.5 34.8C154.7 34.7 154.9 34.5 155 34.3C155 34.2 155.1 34.3 155.1 34.3L155.9 36.3C156 36.7 156.5 36.8 156.8 36.7L158.8 35.9C158.9 35.9 158.9 35.9 158.9 36C158.8 36.3 158.8 36.6 158.9 36.8C159.1 37.4 160 37.6 160.7 37.3C161.5 37 161.9 36.3 161.6 35.7C161.5 35.4 161.3 35.2 161 35.1C160.9 35.1 160.9 35 161 35L163.6 33.9L166.2 32.8C166.3 32.8 166.3 32.8 166.3 32.9C166.2 33.2 166.2 33.5 166.3 33.7C166.5 34.3 167.4 34.5 168.1 34.2C168.9 33.9 169.3 33.2 169 32.6C168.9 32.3 168.7 32.1 168.4 32C168.3 32 168.3 31.9 168.4 31.9L170.6 31C170.9 30.9 171 30.6 170.9 30.3L170.1 28.2C170.1 28.1 170.1 28.1 170.2 28.1C170.4 28.2 170.6 28.2 170.8 28.1C171.4 27.9 171.6 27 171.3 26.3C171 25.5 170.3 25.1 169.7 25.4C169.5 25.5 169.3 25.6 169.2 25.8L169.1 25.8L168.1 23.3L167.1 20.8C167.1 20.7 167.1 20.7 167.2 20.7C167.5 20.8 167.8 20.8 168 20.7C168.6 20.5 168.8 19.6 168.5 18.9C168.2 18.1 167.5 17.7 166.9 18C166.6 18.1 166.4 18.3 166.3 18.6C166.3 18.7 166.2 18.7 166.2 18.6L165.4 16.6C165.2 16.2 164.8 16 164.4 16.2L162.5 16.9C162.4 16.9 162.4 16.9 162.4 16.8C162.5 16.6 162.5 16.4 162.4 16.2C162.2 15.6 161.3 15.4 160.6 15.7C159.8 16 159.4 16.7 159.7 17.3C159.8 17.5 159.9 17.7 160.1 17.8L160.1 17.9L157.6 18.9L155.1 19.9C155 19.9 155 19.9 155 19.8C155.1 19.6 155.1 19.4 155 19.2C154.8 18.6 153.9 18.4 153.2 18.7C152.4 19 152 19.7 152.3 20.3C152.4 20.5 152.5 20.7 152.7 20.8L152.7 20.9L150.8 21.7C150.4 21.8 150.3 22.2 150.4 22.6L151.3 24.8C151.3 24.9 151.4 24.9 151.4 24.8C151.5 24.5 151.7 24.2 152 24.1C152.6 23.9 153.3 24.3 153.6 25C153.9 25.8 153.7 26.6 153.1 26.8C152.8 26.9 152.4 26.9 152.1 26.7C152 26.7 152 26.7 152 26.8L153.1 29.5L154.1 32C154.1 32.1 154.1 32.1 154 32.1C153.8 32 153.5 32 153.3 32.1C152.7 32.3 152.5 33.2 152.8 33.9C153.2 34.6 153.9 35 154.5 34.8ZM158.7 29C158.6 28.9 158.5 28.7 158.4 28.6C158.2 28.3 158.1 27.9 158 27.6L158 27.5C157.9 27.1 157.8 26.7 157.6 26.3C157.5 26 157.4 25.6 157.3 25.3C157.2 25.1 157.3 25 157.4 24.8C157.4 24.8 157.5 24.8 157.5 24.7C157.9 24.5 158.2 24.4 158.5 24.2C159.4 23.8 160.1 23.4 160.8 23.2C161 23.1 161.2 23.1 161.3 23.1C161.8 23 162.3 23.1 162.7 23.3C163.3 23.5 163.7 23.9 163.9 24.4C164.1 24.9 164.1 25.5 163.9 26C163.8 26.2 163.7 26.3 163.6 26.5C163.5 26.7 163.3 26.8 163.1 26.9C163 27 162.8 27 162.7 27.1C162.6 27.1 162.5 27.3 162.6 27.4C162.7 27.5 162.7 27.7 162.8 27.8C162.9 28 162.9 28.2 162.9 28.4C162.9 28.6 162.8 28.8 162.8 29C162.6 29.5 162.2 29.9 161.6 30.1C161.2 30.2 160.8 30.3 160.4 30.2C160.2 30.2 160.1 30.1 159.9 30C159.3 29.8 159 29.5 158.7 29Z" fill="#4F89EC"/>
</g>
<defs>
<clipPath id="clip0_552_129">
<rect width="124.3" height="236.6" fill="white" transform="translate(259.3 527.6) rotate(-180)"/>
</clipPath>
</defs>
</svg>
